<?xml version="1.0" standalone="no"?>
<!DOCTYPE svg PUBLIC "-//W3C//DTD SVG 20010904//EN"
 "http://www.w3.org/TR/2001/REC-SVG-20010904/DTD/svg10.dtd">
<svg version="1.0" xmlns="http://www.w3.org/2000/svg"
 width="128.000000pt" height="128.000000pt" viewBox="0 0 128.000000 128.000000"
 preserveAspectRatio="xMidYMid meet">

<g transform="translate(0.000000,128.000000) scale(0.100000,-0.100000)"
fill="#000000" stroke="none">
<path d="M500 1264 c-234 -50 -436 -254 -485 -489 -67 -322 122 -648 432 -745
296 -93 627 47 762 320 240 487 -180 1028 -709 914z m330 -73 c133 -46 264
-151 323 -259 l28 -52 -123 -1 c-125 -1 -130 -3 -45 -14 l48 -6 -7 -47 c-15
-108 -128 -522 -143 -522 -4 0 -15 17 -25 38 -33 68 -203 466 -215 504 -16 48
-27 55 -36 21 -8 -33 -143 -393 -182 -485 -15 -38 -31 -68 -35 -68 -20 0 -138
466 -138 545 0 8 23 17 63 23 56 8 46 10 -90 11 -84 0 -153 3 -153 6 0 3 12
24 27 48 88 141 212 231 373 273 82 20 248 13 330 -15z m-703 -327 c28 -8 63
-111 153 -454 34 -129 64 -243 66 -252 8 -28 -9 -21 -74 27 -98 73 -175 191
-207 312 -22 84 -19 226 5 307 12 36 24 66 28 66 4 0 17 -3 29 -6z m1083 -61
c49 -157 18 -346 -79 -488 -56 -83 -197 -202 -216 -183 -6 5 133 527 171 640
26 79 41 97 81 98 19 0 25 -11 43 -67z m-991 20 c164 -614 170 -636 160 -660
-5 -14 -11 -24 -13 -22 -2 2 -45 157 -96 344 -50 187 -93 348 -96 358 -4 12 0
17 15 17 15 0 23 -10 30 -37z m550 -345 c115 -270 132 -320 112 -332 -5 -3
-65 125 -134 285 -112 262 -134 329 -107 329 4 0 62 -127 129 -282z m-126 169
c66 -149 216 -506 221 -524 6 -20 1 -24 -46 -38 -29 -9 -81 -19 -115 -22 -60
-6 -63 -5 -63 16 0 16 6 21 26 21 33 0 84 50 84 83 0 34 -35 75 -73 85 -29 7
-32 12 -35 50 -2 32 0 42 12 42 8 0 20 -9 26 -20 14 -26 62 -28 53 -2 -10 30
-34 51 -64 57 -21 5 -29 13 -30 28 l0 22 -9 -21 c-5 -12 -21 -25 -37 -29 -55
-13 -79 -54 -62 -104 9 -27 23 -36 82 -55 13 -4 17 -16 17 -51 0 -42 -2 -46
-22 -43 -13 2 -27 13 -33 26 -11 24 -55 31 -55 8 0 -24 41 -66 73 -74 45 -12
49 -42 5 -42 -41 0 -151 26 -183 43 l-24 12 98 260 c105 276 121 315 130 315
3 0 14 -19 24 -43z m-13 -327 c0 -24 -5 -40 -12 -40 -15 0 -48 30 -48 45 0 17
22 35 42 35 14 0 18 -8 18 -40z m54 -116 c19 -18 19 -20 6 -45 -6 -10 -20 -19
-30 -19 -17 0 -20 7 -20 40 0 44 16 52 44 24z"/>
<path d="M395 1110 c2 -19 4 -44 4 -55 1 -19 5 -20 105 -11 57 5 111 6 120 3
23 -9 23 -115 0 -132 -13 -9 -9 -10 22 -7 22 3 33 7 27 9 -9 3 -13 27 -13 70
l0 65 94 -4 c52 -1 98 -7 103 -11 4 -5 8 -38 8 -75 0 -62 -2 -66 -25 -73 -23
-6 -23 -7 8 -8 l32 -1 -1 133 c-1 72 -3 125 -6 116 -6 -23 -64 -29 -262 -29
-181 0 -208 4 -214 29 -3 9 -3 0 -2 -19z m475 -18 c0 -11 -159 -22 -327 -22
-80 0 -133 4 -133 10 0 6 84 11 218 13 119 1 223 3 230 5 6 1 12 -2 12 -6z"/>
</g>
</svg>
